<mxfile host="app.diagrams.net" modified="2022-04-07T20:25:29.538Z" agent="5.0 (Windows NT 10.0; Win64; x64) AppleWebKit/537.36 (KHTML, like Gecko) Chrome/100.0.4896.75 Safari/537.36" etag="WGTJJS_BFOHgYMULInD5" version="15.8.3" type="github">
  <diagram id="R2lEEEUBdFMjLlhIrx00" name="Page-1">
    <mxGraphModel dx="1021" dy="541" grid="1" gridSize="10" guides="1" tooltips="1" connect="1" arrows="1" fold="1" page="1" pageScale="1" pageWidth="850" pageHeight="1100" math="0" shadow="0" extFonts="Permanent Marker^https://fonts.googleapis.com/css?family=Permanent+Marker">
      <root>
        <mxCell id="0" />
        <mxCell id="1" parent="0" />
        <mxCell id="lR9VZgVWKjw6Nky5dbYD-2" value="" style="endArrow=none;html=1;rounded=0;exitX=1;exitY=0.5;exitDx=0;exitDy=0;entryX=0;entryY=0.5;entryDx=0;entryDy=0;" edge="1" parent="1" source="lR9VZgVWKjw6Nky5dbYD-6" target="lR9VZgVWKjw6Nky5dbYD-3">
          <mxGeometry width="50" height="50" relative="1" as="geometry">
            <mxPoint x="213" y="360" as="sourcePoint" />
            <mxPoint x="333" y="360" as="targetPoint" />
            <Array as="points" />
          </mxGeometry>
        </mxCell>
        <mxCell id="lR9VZgVWKjw6Nky5dbYD-3" value="Tiene" style="rhombus;whiteSpace=wrap;html=1;" vertex="1" parent="1">
          <mxGeometry x="273" y="320" width="80" height="80" as="geometry" />
        </mxCell>
        <mxCell id="lR9VZgVWKjw6Nky5dbYD-4" value="" style="endArrow=none;html=1;rounded=0;exitX=1;exitY=0.5;exitDx=0;exitDy=0;entryX=0;entryY=0.5;entryDx=0;entryDy=0;" edge="1" parent="1" source="lR9VZgVWKjw6Nky5dbYD-3" target="lR9VZgVWKjw6Nky5dbYD-7">
          <mxGeometry width="50" height="50" relative="1" as="geometry">
            <mxPoint x="443" y="520" as="sourcePoint" />
            <mxPoint x="423" y="360" as="targetPoint" />
          </mxGeometry>
        </mxCell>
        <mxCell id="lR9VZgVWKjw6Nky5dbYD-6" value="Colegio" style="rounded=0;whiteSpace=wrap;html=1;" vertex="1" parent="1">
          <mxGeometry x="103" y="330" width="110" height="60" as="geometry" />
        </mxCell>
        <mxCell id="lR9VZgVWKjw6Nky5dbYD-7" value="Docente" style="rounded=0;whiteSpace=wrap;html=1;" vertex="1" parent="1">
          <mxGeometry x="403" y="330" width="120" height="60" as="geometry" />
        </mxCell>
        <mxCell id="lR9VZgVWKjw6Nky5dbYD-14" value="" style="endArrow=none;html=1;rounded=0;" edge="1" parent="1">
          <mxGeometry width="50" height="50" relative="1" as="geometry">
            <mxPoint x="570" y="385" as="sourcePoint" />
            <mxPoint x="570" y="285" as="targetPoint" />
          </mxGeometry>
        </mxCell>
        <mxCell id="lR9VZgVWKjw6Nky5dbYD-15" value="" style="endArrow=none;html=1;rounded=0;entryX=0;entryY=0.5;entryDx=0;entryDy=0;" edge="1" parent="1" target="lR9VZgVWKjw6Nky5dbYD-32">
          <mxGeometry width="50" height="50" relative="1" as="geometry">
            <mxPoint x="570" y="285" as="sourcePoint" />
            <mxPoint x="680" y="160" as="targetPoint" />
          </mxGeometry>
        </mxCell>
        <mxCell id="lR9VZgVWKjw6Nky5dbYD-18" value="" style="endArrow=none;html=1;rounded=0;entryX=0;entryY=0.5;entryDx=0;entryDy=0;" edge="1" parent="1" target="lR9VZgVWKjw6Nky5dbYD-33">
          <mxGeometry width="50" height="50" relative="1" as="geometry">
            <mxPoint x="573" y="315" as="sourcePoint" />
            <mxPoint x="683" y="340" as="targetPoint" />
          </mxGeometry>
        </mxCell>
        <mxCell id="lR9VZgVWKjw6Nky5dbYD-19" value="" style="endArrow=none;html=1;rounded=0;entryX=0;entryY=0.5;entryDx=0;entryDy=0;" edge="1" parent="1" target="lR9VZgVWKjw6Nky5dbYD-34">
          <mxGeometry width="50" height="50" relative="1" as="geometry">
            <mxPoint x="570" y="345" as="sourcePoint" />
            <mxPoint x="673.99" y="379" as="targetPoint" />
          </mxGeometry>
        </mxCell>
        <mxCell id="lR9VZgVWKjw6Nky5dbYD-20" value="" style="endArrow=none;html=1;rounded=0;exitX=1;exitY=0.5;exitDx=0;exitDy=0;exitPerimeter=0;" edge="1" parent="1" source="lR9VZgVWKjw6Nky5dbYD-7">
          <mxGeometry width="50" height="50" relative="1" as="geometry">
            <mxPoint x="363" y="370" as="sourcePoint" />
            <mxPoint x="573" y="350" as="targetPoint" />
          </mxGeometry>
        </mxCell>
        <mxCell id="lR9VZgVWKjw6Nky5dbYD-29" value="N:M" style="text;strokeColor=none;fillColor=none;spacingLeft=4;spacingRight=4;overflow=hidden;rotatable=0;points=[[0,0.5],[1,0.5]];portConstraint=eastwest;fontSize=12;" vertex="1" parent="1">
          <mxGeometry x="313" y="300" width="40" height="30" as="geometry" />
        </mxCell>
        <mxCell id="lR9VZgVWKjw6Nky5dbYD-30" value="(1,N)" style="text;strokeColor=none;fillColor=none;spacingLeft=4;spacingRight=4;overflow=hidden;rotatable=0;points=[[0,0.5],[1,0.5]];portConstraint=eastwest;fontSize=12;" vertex="1" parent="1">
          <mxGeometry x="183" y="300" width="40" height="30" as="geometry" />
        </mxCell>
        <mxCell id="lR9VZgVWKjw6Nky5dbYD-31" value="(N,1)" style="text;strokeColor=none;fillColor=none;spacingLeft=4;spacingRight=4;overflow=hidden;rotatable=0;points=[[0,0.5],[1,0.5]];portConstraint=eastwest;fontSize=12;" vertex="1" parent="1">
          <mxGeometry x="393" y="300" width="40" height="30" as="geometry" />
        </mxCell>
        <mxCell id="lR9VZgVWKjw6Nky5dbYD-32" value="Nombre" style="ellipse;whiteSpace=wrap;html=1;align=center;" vertex="1" parent="1">
          <mxGeometry x="610" y="270" width="80" height="30" as="geometry" />
        </mxCell>
        <mxCell id="lR9VZgVWKjw6Nky5dbYD-33" value="Fecha" style="ellipse;whiteSpace=wrap;html=1;align=center;" vertex="1" parent="1">
          <mxGeometry x="673" y="300" width="80" height="30" as="geometry" />
        </mxCell>
        <mxCell id="lR9VZgVWKjw6Nky5dbYD-34" value="Cedula" style="ellipse;whiteSpace=wrap;html=1;align=center;" vertex="1" parent="1">
          <mxGeometry x="610" y="330" width="80" height="30" as="geometry" />
        </mxCell>
        <mxCell id="lR9VZgVWKjw6Nky5dbYD-35" value="" style="endArrow=none;html=1;rounded=0;exitX=0.5;exitY=1;exitDx=0;exitDy=0;" edge="1" parent="1" source="lR9VZgVWKjw6Nky5dbYD-6" target="lR9VZgVWKjw6Nky5dbYD-36">
          <mxGeometry relative="1" as="geometry">
            <mxPoint x="383" y="500" as="sourcePoint" />
            <mxPoint x="543" y="500" as="targetPoint" />
          </mxGeometry>
        </mxCell>
        <mxCell id="lR9VZgVWKjw6Nky5dbYD-36" value="Tiene" style="shape=rhombus;perimeter=rhombusPerimeter;whiteSpace=wrap;html=1;align=center;" vertex="1" parent="1">
          <mxGeometry x="98" y="450" width="120" height="60" as="geometry" />
        </mxCell>
        <mxCell id="lR9VZgVWKjw6Nky5dbYD-37" value="" style="endArrow=none;html=1;rounded=0;exitX=0.5;exitY=1;exitDx=0;exitDy=0;" edge="1" parent="1" source="lR9VZgVWKjw6Nky5dbYD-36" target="lR9VZgVWKjw6Nky5dbYD-38">
          <mxGeometry relative="1" as="geometry">
            <mxPoint x="383" y="500" as="sourcePoint" />
            <mxPoint x="543" y="500" as="targetPoint" />
          </mxGeometry>
        </mxCell>
        <mxCell id="lR9VZgVWKjw6Nky5dbYD-38" value="Cursos" style="whiteSpace=wrap;html=1;align=center;" vertex="1" parent="1">
          <mxGeometry x="108" y="580" width="100" height="40" as="geometry" />
        </mxCell>
        <mxCell id="lR9VZgVWKjw6Nky5dbYD-39" value="N:M" style="text;strokeColor=none;fillColor=none;spacingLeft=4;spacingRight=4;overflow=hidden;rotatable=0;points=[[0,0.5],[1,0.5]];portConstraint=eastwest;fontSize=12;" vertex="1" parent="1">
          <mxGeometry x="193" y="490" width="40" height="30" as="geometry" />
        </mxCell>
        <mxCell id="lR9VZgVWKjw6Nky5dbYD-40" value="(1,N)" style="text;strokeColor=none;fillColor=none;spacingLeft=4;spacingRight=4;overflow=hidden;rotatable=0;points=[[0,0.5],[1,0.5]];portConstraint=eastwest;fontSize=12;" vertex="1" parent="1">
          <mxGeometry x="173" y="390" width="40" height="30" as="geometry" />
        </mxCell>
        <mxCell id="lR9VZgVWKjw6Nky5dbYD-41" value="(1,N)" style="text;strokeColor=none;fillColor=none;spacingLeft=4;spacingRight=4;overflow=hidden;rotatable=0;points=[[0,0.5],[1,0.5]];portConstraint=eastwest;fontSize=12;" vertex="1" parent="1">
          <mxGeometry x="190" y="555" width="40" height="30" as="geometry" />
        </mxCell>
        <mxCell id="lR9VZgVWKjw6Nky5dbYD-43" value="" style="endArrow=none;html=1;rounded=0;entryX=0;entryY=0.5;entryDx=0;entryDy=0;" edge="1" parent="1" target="lR9VZgVWKjw6Nky5dbYD-47">
          <mxGeometry width="50" height="50" relative="1" as="geometry">
            <mxPoint x="153" y="105" as="sourcePoint" />
            <mxPoint x="273" y="114.02" as="targetPoint" />
          </mxGeometry>
        </mxCell>
        <mxCell id="lR9VZgVWKjw6Nky5dbYD-44" value="" style="endArrow=none;html=1;rounded=0;entryX=0;entryY=0.5;entryDx=0;entryDy=0;" edge="1" parent="1" target="lR9VZgVWKjw6Nky5dbYD-48">
          <mxGeometry width="50" height="50" relative="1" as="geometry">
            <mxPoint x="153" y="135" as="sourcePoint" />
            <mxPoint x="273" y="164.01999999999998" as="targetPoint" />
          </mxGeometry>
        </mxCell>
        <mxCell id="lR9VZgVWKjw6Nky5dbYD-46" value="" style="endArrow=none;html=1;rounded=0;exitX=0.127;exitY=0.033;exitDx=0;exitDy=0;exitPerimeter=0;" edge="1" parent="1" source="lR9VZgVWKjw6Nky5dbYD-6">
          <mxGeometry width="50" height="50" relative="1" as="geometry">
            <mxPoint x="130" y="190" as="sourcePoint" />
            <mxPoint x="150" y="200" as="targetPoint" />
            <Array as="points">
              <mxPoint x="80" y="200" />
            </Array>
          </mxGeometry>
        </mxCell>
        <mxCell id="lR9VZgVWKjw6Nky5dbYD-47" value="Pub_priv" style="ellipse;whiteSpace=wrap;html=1;align=center;" vertex="1" parent="1">
          <mxGeometry x="203" y="90" width="80" height="30" as="geometry" />
        </mxCell>
        <mxCell id="lR9VZgVWKjw6Nky5dbYD-48" value="N_Estudiantes" style="ellipse;whiteSpace=wrap;html=1;align=center;" vertex="1" parent="1">
          <mxGeometry x="253" y="120" width="100" height="30" as="geometry" />
        </mxCell>
        <mxCell id="lR9VZgVWKjw6Nky5dbYD-49" value="Nombre" style="ellipse;whiteSpace=wrap;html=1;align=center;" vertex="1" parent="1">
          <mxGeometry x="198" y="150" width="80" height="30" as="geometry" />
        </mxCell>
        <mxCell id="lR9VZgVWKjw6Nky5dbYD-50" value="id" style="ellipse;whiteSpace=wrap;html=1;align=center;" vertex="1" parent="1">
          <mxGeometry x="273" y="170" width="80" height="30" as="geometry" />
        </mxCell>
        <mxCell id="lR9VZgVWKjw6Nky5dbYD-51" value="FK_Docente&lt;span style=&quot;color: rgba(0 , 0 , 0 , 0) ; font-family: monospace ; font-size: 0px&quot;&gt;%3CmxGraphModel%3E%3Croot%3E%3CmxCell%20id%3D%220%22%2F%3E%3CmxCell%20id%3D%221%22%20parent%3D%220%22%2F%3E%3CmxCell%20id%3D%222%22%20value%3D%22id%22%20style%3D%22ellipse%3BwhiteSpace%3Dwrap%3Bhtml%3D1%3Balign%3Dcenter%3B%22%20vertex%3D%221%22%20parent%3D%221%22%3E%3CmxGeometry%20x%3D%22280%22%20y%3D%2290%22%20width%3D%2280%22%20height%3D%2230%22%20as%3D%22geometry%22%2F%3E%3C%2FmxCell%3E%3C%2Froot%3E%3C%2FmxGraphModel%3E&lt;/span&gt;" style="ellipse;whiteSpace=wrap;html=1;align=center;" vertex="1" parent="1">
          <mxGeometry x="186" y="190" width="80" height="30" as="geometry" />
        </mxCell>
        <mxCell id="lR9VZgVWKjw6Nky5dbYD-52" value="Fk_grado" style="ellipse;whiteSpace=wrap;html=1;align=center;" vertex="1" parent="1">
          <mxGeometry x="253" y="220" width="80" height="30" as="geometry" />
        </mxCell>
        <mxCell id="lR9VZgVWKjw6Nky5dbYD-54" value="" style="endArrow=none;html=1;rounded=0;entryX=0;entryY=0.5;entryDx=0;entryDy=0;" edge="1" parent="1" target="lR9VZgVWKjw6Nky5dbYD-50">
          <mxGeometry width="50" height="50" relative="1" as="geometry">
            <mxPoint x="153" y="180" as="sourcePoint" />
            <mxPoint x="213" y="115" as="targetPoint" />
          </mxGeometry>
        </mxCell>
        <mxCell id="lR9VZgVWKjw6Nky5dbYD-55" value="" style="endArrow=none;html=1;rounded=0;" edge="1" parent="1" target="lR9VZgVWKjw6Nky5dbYD-49">
          <mxGeometry width="50" height="50" relative="1" as="geometry">
            <mxPoint x="153" y="165" as="sourcePoint" />
            <mxPoint x="223" y="125" as="targetPoint" />
          </mxGeometry>
        </mxCell>
        <mxCell id="lR9VZgVWKjw6Nky5dbYD-56" value="" style="endArrow=none;html=1;rounded=0;entryX=0;entryY=0.5;entryDx=0;entryDy=0;" edge="1" parent="1" target="lR9VZgVWKjw6Nky5dbYD-52">
          <mxGeometry width="50" height="50" relative="1" as="geometry">
            <mxPoint x="153" y="240" as="sourcePoint" />
            <mxPoint x="233" y="135" as="targetPoint" />
          </mxGeometry>
        </mxCell>
        <mxCell id="lR9VZgVWKjw6Nky5dbYD-57" value="" style="endArrow=none;html=1;rounded=0;" edge="1" parent="1" target="lR9VZgVWKjw6Nky5dbYD-51">
          <mxGeometry width="50" height="50" relative="1" as="geometry">
            <mxPoint x="153" y="205" as="sourcePoint" />
            <mxPoint x="243" y="145" as="targetPoint" />
          </mxGeometry>
        </mxCell>
        <mxCell id="lR9VZgVWKjw6Nky5dbYD-58" value="" style="endArrow=none;html=1;rounded=0;" edge="1" parent="1">
          <mxGeometry relative="1" as="geometry">
            <mxPoint x="153" y="240" as="sourcePoint" />
            <mxPoint x="153" y="100" as="targetPoint" />
          </mxGeometry>
        </mxCell>
        <mxCell id="lR9VZgVWKjw6Nky5dbYD-59" value="Cedula" style="ellipse;whiteSpace=wrap;html=1;align=center;" vertex="1" parent="1">
          <mxGeometry x="680" y="360" width="80" height="30" as="geometry" />
        </mxCell>
        <mxCell id="lR9VZgVWKjw6Nky5dbYD-61" value="" style="endArrow=none;html=1;rounded=0;entryX=0;entryY=0.5;entryDx=0;entryDy=0;" edge="1" parent="1" target="lR9VZgVWKjw6Nky5dbYD-59">
          <mxGeometry width="50" height="50" relative="1" as="geometry">
            <mxPoint x="570" y="375" as="sourcePoint" />
            <mxPoint x="620.0000000000002" y="355" as="targetPoint" />
          </mxGeometry>
        </mxCell>
        <mxCell id="lR9VZgVWKjw6Nky5dbYD-62" value="" style="endArrow=none;html=1;rounded=0;" edge="1" parent="1">
          <mxGeometry width="50" height="50" relative="1" as="geometry">
            <mxPoint x="190" y="780" as="sourcePoint" />
            <mxPoint x="190" y="685" as="targetPoint" />
          </mxGeometry>
        </mxCell>
        <mxCell id="lR9VZgVWKjw6Nky5dbYD-63" value="" style="endArrow=none;html=1;rounded=0;entryX=0;entryY=0.5;entryDx=0;entryDy=0;" edge="1" parent="1" target="lR9VZgVWKjw6Nky5dbYD-66">
          <mxGeometry width="50" height="50" relative="1" as="geometry">
            <mxPoint x="190" y="685" as="sourcePoint" />
            <mxPoint x="300" y="560" as="targetPoint" />
          </mxGeometry>
        </mxCell>
        <mxCell id="lR9VZgVWKjw6Nky5dbYD-64" value="" style="endArrow=none;html=1;rounded=0;entryX=0;entryY=0.5;entryDx=0;entryDy=0;" edge="1" parent="1" target="lR9VZgVWKjw6Nky5dbYD-67">
          <mxGeometry width="50" height="50" relative="1" as="geometry">
            <mxPoint x="190" y="715" as="sourcePoint" />
            <mxPoint x="303" y="740" as="targetPoint" />
          </mxGeometry>
        </mxCell>
        <mxCell id="lR9VZgVWKjw6Nky5dbYD-65" value="" style="endArrow=none;html=1;rounded=0;entryX=0;entryY=0.5;entryDx=0;entryDy=0;" edge="1" parent="1" target="lR9VZgVWKjw6Nky5dbYD-68">
          <mxGeometry width="50" height="50" relative="1" as="geometry">
            <mxPoint x="190" y="745" as="sourcePoint" />
            <mxPoint x="293.99" y="779" as="targetPoint" />
          </mxGeometry>
        </mxCell>
        <mxCell id="lR9VZgVWKjw6Nky5dbYD-66" value="Grado" style="ellipse;whiteSpace=wrap;html=1;align=center;" vertex="1" parent="1">
          <mxGeometry x="230" y="670" width="80" height="30" as="geometry" />
        </mxCell>
        <mxCell id="lR9VZgVWKjw6Nky5dbYD-67" value="fk_Estudiantes" style="ellipse;whiteSpace=wrap;html=1;align=center;" vertex="1" parent="1">
          <mxGeometry x="293" y="700" width="97" height="30" as="geometry" />
        </mxCell>
        <mxCell id="lR9VZgVWKjw6Nky5dbYD-68" value="fk_docente" style="ellipse;whiteSpace=wrap;html=1;align=center;" vertex="1" parent="1">
          <mxGeometry x="230" y="730" width="80" height="30" as="geometry" />
        </mxCell>
        <mxCell id="lR9VZgVWKjw6Nky5dbYD-69" value="Curso" style="ellipse;whiteSpace=wrap;html=1;align=center;" vertex="1" parent="1">
          <mxGeometry x="300" y="760" width="80" height="30" as="geometry" />
        </mxCell>
        <mxCell id="lR9VZgVWKjw6Nky5dbYD-70" value="" style="endArrow=none;html=1;rounded=0;entryX=0;entryY=0.5;entryDx=0;entryDy=0;" edge="1" parent="1" target="lR9VZgVWKjw6Nky5dbYD-69">
          <mxGeometry width="50" height="50" relative="1" as="geometry">
            <mxPoint x="190" y="775" as="sourcePoint" />
            <mxPoint x="240.00000000000023" y="755" as="targetPoint" />
          </mxGeometry>
        </mxCell>
        <mxCell id="lR9VZgVWKjw6Nky5dbYD-71" value="" style="endArrow=none;html=1;rounded=0;" edge="1" parent="1" source="lR9VZgVWKjw6Nky5dbYD-38">
          <mxGeometry relative="1" as="geometry">
            <mxPoint x="210" y="740" as="sourcePoint" />
            <mxPoint x="190" y="730" as="targetPoint" />
            <Array as="points">
              <mxPoint x="158" y="730" />
            </Array>
          </mxGeometry>
        </mxCell>
        <mxCell id="lR9VZgVWKjw6Nky5dbYD-72" value="Tiene" style="rhombus;whiteSpace=wrap;html=1;" vertex="1" parent="1">
          <mxGeometry x="340" y="560" width="80" height="80" as="geometry" />
        </mxCell>
        <mxCell id="lR9VZgVWKjw6Nky5dbYD-73" value="" style="endArrow=none;html=1;rounded=0;exitX=1;exitY=0.5;exitDx=0;exitDy=0;entryX=0;entryY=0.5;entryDx=0;entryDy=0;" edge="1" parent="1" source="lR9VZgVWKjw6Nky5dbYD-72" target="lR9VZgVWKjw6Nky5dbYD-74">
          <mxGeometry width="50" height="50" relative="1" as="geometry">
            <mxPoint x="520" y="760" as="sourcePoint" />
            <mxPoint x="500" y="600" as="targetPoint" />
          </mxGeometry>
        </mxCell>
        <mxCell id="lR9VZgVWKjw6Nky5dbYD-74" value="Estudiantes" style="rounded=0;whiteSpace=wrap;html=1;" vertex="1" parent="1">
          <mxGeometry x="500" y="570" width="120" height="60" as="geometry" />
        </mxCell>
        <mxCell id="lR9VZgVWKjw6Nky5dbYD-75" value="N:M" style="text;strokeColor=none;fillColor=none;spacingLeft=4;spacingRight=4;overflow=hidden;rotatable=0;points=[[0,0.5],[1,0.5]];portConstraint=eastwest;fontSize=12;" vertex="1" parent="1">
          <mxGeometry x="380" y="540" width="40" height="30" as="geometry" />
        </mxCell>
        <mxCell id="lR9VZgVWKjw6Nky5dbYD-77" value="" style="endArrow=none;html=1;rounded=0;exitX=1;exitY=0.5;exitDx=0;exitDy=0;entryX=0;entryY=0.5;entryDx=0;entryDy=0;" edge="1" parent="1" source="lR9VZgVWKjw6Nky5dbYD-38" target="lR9VZgVWKjw6Nky5dbYD-72">
          <mxGeometry relative="1" as="geometry">
            <mxPoint x="260" y="490" as="sourcePoint" />
            <mxPoint x="420" y="490" as="targetPoint" />
          </mxGeometry>
        </mxCell>
        <mxCell id="lR9VZgVWKjw6Nky5dbYD-78" value="" style="endArrow=none;html=1;rounded=0;" edge="1" parent="1">
          <mxGeometry width="50" height="50" relative="1" as="geometry">
            <mxPoint x="610" y="840" as="sourcePoint" />
            <mxPoint x="610" y="695" as="targetPoint" />
          </mxGeometry>
        </mxCell>
        <mxCell id="lR9VZgVWKjw6Nky5dbYD-79" value="" style="endArrow=none;html=1;rounded=0;entryX=0;entryY=0.5;entryDx=0;entryDy=0;" edge="1" parent="1" target="lR9VZgVWKjw6Nky5dbYD-82">
          <mxGeometry width="50" height="50" relative="1" as="geometry">
            <mxPoint x="610" y="695" as="sourcePoint" />
            <mxPoint x="720" y="570" as="targetPoint" />
          </mxGeometry>
        </mxCell>
        <mxCell id="lR9VZgVWKjw6Nky5dbYD-80" value="" style="endArrow=none;html=1;rounded=0;entryX=0;entryY=0.5;entryDx=0;entryDy=0;" edge="1" parent="1" target="lR9VZgVWKjw6Nky5dbYD-83">
          <mxGeometry width="50" height="50" relative="1" as="geometry">
            <mxPoint x="610" y="725" as="sourcePoint" />
            <mxPoint x="723" y="750" as="targetPoint" />
          </mxGeometry>
        </mxCell>
        <mxCell id="lR9VZgVWKjw6Nky5dbYD-81" value="" style="endArrow=none;html=1;rounded=0;entryX=0;entryY=0.5;entryDx=0;entryDy=0;" edge="1" parent="1" target="lR9VZgVWKjw6Nky5dbYD-84">
          <mxGeometry width="50" height="50" relative="1" as="geometry">
            <mxPoint x="610" y="755" as="sourcePoint" />
            <mxPoint x="713.99" y="789" as="targetPoint" />
          </mxGeometry>
        </mxCell>
        <mxCell id="lR9VZgVWKjw6Nky5dbYD-82" value="Grado" style="ellipse;whiteSpace=wrap;html=1;align=center;" vertex="1" parent="1">
          <mxGeometry x="650" y="680" width="80" height="30" as="geometry" />
        </mxCell>
        <mxCell id="lR9VZgVWKjw6Nky5dbYD-83" value="Edad" style="ellipse;whiteSpace=wrap;html=1;align=center;" vertex="1" parent="1">
          <mxGeometry x="713" y="710" width="97" height="30" as="geometry" />
        </mxCell>
        <mxCell id="lR9VZgVWKjw6Nky5dbYD-84" value="Cedula" style="ellipse;whiteSpace=wrap;html=1;align=center;" vertex="1" parent="1">
          <mxGeometry x="650" y="740" width="80" height="30" as="geometry" />
        </mxCell>
        <mxCell id="lR9VZgVWKjw6Nky5dbYD-85" value="Curso" style="ellipse;whiteSpace=wrap;html=1;align=center;" vertex="1" parent="1">
          <mxGeometry x="720" y="770" width="80" height="30" as="geometry" />
        </mxCell>
        <mxCell id="lR9VZgVWKjw6Nky5dbYD-86" value="" style="endArrow=none;html=1;rounded=0;entryX=0;entryY=0.5;entryDx=0;entryDy=0;" edge="1" parent="1" target="lR9VZgVWKjw6Nky5dbYD-85">
          <mxGeometry width="50" height="50" relative="1" as="geometry">
            <mxPoint x="610" y="785" as="sourcePoint" />
            <mxPoint x="660.0000000000002" y="765" as="targetPoint" />
          </mxGeometry>
        </mxCell>
        <mxCell id="lR9VZgVWKjw6Nky5dbYD-87" value="" style="endArrow=none;html=1;rounded=0;exitX=0.25;exitY=1;exitDx=0;exitDy=0;" edge="1" parent="1" source="lR9VZgVWKjw6Nky5dbYD-74">
          <mxGeometry relative="1" as="geometry">
            <mxPoint x="460" y="740" as="sourcePoint" />
            <mxPoint x="610" y="740" as="targetPoint" />
            <Array as="points">
              <mxPoint x="530" y="740" />
            </Array>
          </mxGeometry>
        </mxCell>
        <mxCell id="lR9VZgVWKjw6Nky5dbYD-88" value="(1,1)" style="text;strokeColor=none;fillColor=none;spacingLeft=4;spacingRight=4;overflow=hidden;rotatable=0;points=[[0,0.5],[1,0.5]];portConstraint=eastwest;fontSize=12;" vertex="1" parent="1">
          <mxGeometry x="490" y="540" width="40" height="30" as="geometry" />
        </mxCell>
        <mxCell id="lR9VZgVWKjw6Nky5dbYD-89" value="Año" style="ellipse;whiteSpace=wrap;html=1;align=center;" vertex="1" parent="1">
          <mxGeometry x="650" y="800" width="80" height="30" as="geometry" />
        </mxCell>
        <mxCell id="lR9VZgVWKjw6Nky5dbYD-90" value="Nombre" style="ellipse;whiteSpace=wrap;html=1;align=center;" vertex="1" parent="1">
          <mxGeometry x="730" y="820" width="80" height="30" as="geometry" />
        </mxCell>
        <mxCell id="lR9VZgVWKjw6Nky5dbYD-91" value="" style="endArrow=none;html=1;rounded=0;entryX=0;entryY=0.5;entryDx=0;entryDy=0;" edge="1" parent="1" target="lR9VZgVWKjw6Nky5dbYD-89">
          <mxGeometry width="50" height="50" relative="1" as="geometry">
            <mxPoint x="610" y="820" as="sourcePoint" />
            <mxPoint x="730" y="795" as="targetPoint" />
          </mxGeometry>
        </mxCell>
        <mxCell id="lR9VZgVWKjw6Nky5dbYD-92" value="" style="endArrow=none;html=1;rounded=0;entryX=0;entryY=0.5;entryDx=0;entryDy=0;" edge="1" parent="1" target="lR9VZgVWKjw6Nky5dbYD-90">
          <mxGeometry width="50" height="50" relative="1" as="geometry">
            <mxPoint x="610" y="835" as="sourcePoint" />
            <mxPoint x="740" y="805" as="targetPoint" />
          </mxGeometry>
        </mxCell>
        <mxCell id="lR9VZgVWKjw6Nky5dbYD-108" value="Historial" style="whiteSpace=wrap;html=1;align=center;" vertex="1" parent="1">
          <mxGeometry x="213" y="890" width="100" height="40" as="geometry" />
        </mxCell>
        <mxCell id="lR9VZgVWKjw6Nky5dbYD-109" value="(1,N)" style="text;strokeColor=none;fillColor=none;spacingLeft=4;spacingRight=4;overflow=hidden;rotatable=0;points=[[0,0.5],[1,0.5]];portConstraint=eastwest;fontSize=12;" vertex="1" parent="1">
          <mxGeometry x="283" y="860" width="40" height="30" as="geometry" />
        </mxCell>
        <mxCell id="lR9VZgVWKjw6Nky5dbYD-110" value="" style="endArrow=none;html=1;rounded=0;" edge="1" parent="1">
          <mxGeometry width="50" height="50" relative="1" as="geometry">
            <mxPoint x="296" y="1005" as="sourcePoint" />
            <mxPoint x="296" y="945" as="targetPoint" />
          </mxGeometry>
        </mxCell>
        <mxCell id="lR9VZgVWKjw6Nky5dbYD-111" value="" style="endArrow=none;html=1;rounded=0;entryX=0;entryY=0.5;entryDx=0;entryDy=0;" edge="1" parent="1" target="lR9VZgVWKjw6Nky5dbYD-114">
          <mxGeometry width="50" height="50" relative="1" as="geometry">
            <mxPoint x="296" y="945" as="sourcePoint" />
            <mxPoint x="406" y="820" as="targetPoint" />
          </mxGeometry>
        </mxCell>
        <mxCell id="lR9VZgVWKjw6Nky5dbYD-112" value="" style="endArrow=none;html=1;rounded=0;entryX=0;entryY=0.5;entryDx=0;entryDy=0;" edge="1" parent="1" target="lR9VZgVWKjw6Nky5dbYD-115">
          <mxGeometry width="50" height="50" relative="1" as="geometry">
            <mxPoint x="296" y="975" as="sourcePoint" />
            <mxPoint x="409" y="1000" as="targetPoint" />
          </mxGeometry>
        </mxCell>
        <mxCell id="lR9VZgVWKjw6Nky5dbYD-113" value="" style="endArrow=none;html=1;rounded=0;entryX=0;entryY=0.5;entryDx=0;entryDy=0;" edge="1" parent="1" target="lR9VZgVWKjw6Nky5dbYD-116">
          <mxGeometry width="50" height="50" relative="1" as="geometry">
            <mxPoint x="296" y="1005" as="sourcePoint" />
            <mxPoint x="399.99" y="1039" as="targetPoint" />
          </mxGeometry>
        </mxCell>
        <mxCell id="lR9VZgVWKjw6Nky5dbYD-114" value="fk_Docente" style="ellipse;whiteSpace=wrap;html=1;align=center;" vertex="1" parent="1">
          <mxGeometry x="336" y="930" width="80" height="30" as="geometry" />
        </mxCell>
        <mxCell id="lR9VZgVWKjw6Nky5dbYD-115" value="fk_Estudiantes" style="ellipse;whiteSpace=wrap;html=1;align=center;" vertex="1" parent="1">
          <mxGeometry x="399" y="960" width="97" height="30" as="geometry" />
        </mxCell>
        <mxCell id="lR9VZgVWKjw6Nky5dbYD-116" value="fk_Cursos" style="ellipse;whiteSpace=wrap;html=1;align=center;" vertex="1" parent="1">
          <mxGeometry x="336" y="990" width="80" height="30" as="geometry" />
        </mxCell>
        <mxCell id="lR9VZgVWKjw6Nky5dbYD-119" value="" style="endArrow=none;html=1;rounded=0;exitX=0.5;exitY=1;exitDx=0;exitDy=0;" edge="1" parent="1" source="lR9VZgVWKjw6Nky5dbYD-108">
          <mxGeometry relative="1" as="geometry">
            <mxPoint x="264" y="880" as="sourcePoint" />
            <mxPoint x="296" y="990" as="targetPoint" />
            <Array as="points">
              <mxPoint x="264" y="990" />
            </Array>
          </mxGeometry>
        </mxCell>
        <mxCell id="lR9VZgVWKjw6Nky5dbYD-121" value="" style="endArrow=none;html=1;rounded=0;exitX=0;exitY=0.75;exitDx=0;exitDy=0;" edge="1" parent="1" source="lR9VZgVWKjw6Nky5dbYD-108">
          <mxGeometry relative="1" as="geometry">
            <mxPoint x="290" y="920" as="sourcePoint" />
            <mxPoint x="100" y="360" as="targetPoint" />
            <Array as="points">
              <mxPoint x="40" y="920" />
              <mxPoint x="40" y="360" />
            </Array>
          </mxGeometry>
        </mxCell>
      </root>
    </mxGraphModel>
  </diagram>
</mxfile>
